<svg xmlns="http://www.w3.org/2000/svg" width="1200" height="1200" viewBox="0 0 1200 1200" role="img" aria-labelledby="title desc"><title id="title">Fire Dream Meaning in Islam artwork</title><desc id="desc">A restrained editorial symbol illustration for Islamic Dream Reflection.</desc><defs><linearGradient id="wash-fire" x1="0" x2="1" y1="0" y2="1"><stop offset="0" stop-color="#fffdf6"/><stop offset="0.62" stop-color="#faf6ec"/><stop offset="1" stop-color="#f1e9d8"/></linearGradient><radialGradient id="glow-fire" cx="72%" cy="22%" r="62%"><stop offset="0" stop-color="#d3ac5e" stop-opacity="0.22"/><stop offset="0.52" stop-color="#b8923f" stop-opacity="0.07"/><stop offset="1" stop-color="#16543f" stop-opacity="0"/></radialGradient><pattern id="grain-fire" width="18" height="18" patternUnits="userSpaceOnUse"><path d="M2 8 H3 M12 4 H13 M8 15 H9" stroke="#d8cdae" stroke-width="1" opacity="0.18"/></pattern></defs><rect width="1200" height="1200" rx="68" fill="url(#wash-fire)"/><rect width="1200" height="1200" rx="68" fill="url(#grain-fire)" opacity="0.55"/><rect x="56" y="56" width="1088" height="1088" rx="52" fill="url(#glow-fire)" stroke="#d8cdae" stroke-width="5"/><g opacity="0.16" stroke="#16543f" stroke-width="2" fill="none"><path d="M600 122 L772 294 L600 466 L428 294 Z"/><path d="M600 734 L772 906 L600 1078 L428 906 Z"/><circle cx="600" cy="600" r="378"/><circle cx="600" cy="600" r="270"/></g><g fill="none" stroke-linejoin="round"><path d="M606 888 C470 850 392 744 420 610 C444 495 545 445 548 322 C660 410 682 500 658 596 C720 548 752 490 758 420 C864 545 900 728 784 836 C735 882 672 904 606 888 Z" fill="#f0c76c" stroke="#0d3b2e" stroke-width="28"/><path d="M596 828 C520 800 484 734 512 662 C534 605 590 582 594 506 C668 584 712 686 650 780 C636 802 618 818 596 828 Z" fill="#16543f" opacity="0.84"/><path d="M402 900 H808" stroke="#b8923f" stroke-width="18" stroke-linecap="round"/></g></svg>