<svg width="1200" height="1200" viewBox="0 0 1200 1200" xmlns="http://www.w3.org/2000/svg">
  <defs>
    <linearGradient id="paper-teeth" x1="0" y1="0" x2="1" y2="1">
      <stop offset="0" stop-color="#fffdf7"/>
      <stop offset="0.58" stop-color="#fbf5e8"/>
      <stop offset="1" stop-color="#efe2c9"/>
    </linearGradient>
    <radialGradient id="warm-teeth" cx="78%" cy="18%" r="58%">
      <stop offset="0" stop-color="#d7b967" stop-opacity="0.28"/>
      <stop offset="1" stop-color="#d7b967" stop-opacity="0"/>
    </radialGradient>
    <filter id="soft-teeth" x="-15%" y="-15%" width="130%" height="130%">
      <feDropShadow dx="0" dy="18" stdDeviation="18" flood-color="#0d3b2e" flood-opacity="0.14"/>
    </filter>
  </defs>
  <rect width="1200" height="1200" rx="66" fill="url(#paper-teeth)"/>
  <rect width="1200" height="1200" rx="66" fill="url(#warm-teeth)"/>
  <path d="M92 104c0-34 28-62 62-62h892c34 0 62 28 62 62v892c0 34-28 62-62 62H154c-34 0-62-28-62-62z" fill="none" stroke="#d7ccb0" stroke-width="5"/>
  <rect x="220" y="220" width="760" height="760" rx="80" fill="none" stroke="#1d5a48" stroke-opacity="0.12" stroke-width="4"/><path d="M326 326h548v548H326z" fill="none" stroke="#bf9134" stroke-opacity="0.12" stroke-width="3" transform="rotate(45 600 600)"/>
  <g filter="url(#soft-teeth)">
    <path d="M330 420c56-96 190-96 236 10 25 59-2 159-42 260-20 50-31 100-78 100-36 0-39-65-76-65s-42 65-78 65c-47 0-58-50-78-100-40-101-67-201-42-260 25-58 82-80 158-10z" fill="#fffaf0" stroke="#0d3b2e" stroke-width="24" stroke-linejoin="round"/>
    <path d="M728 432c54-72 153-58 184 22 24 62-4 154-43 245-19 43-30 88-70 88-31 0-36-55-66-55s-37 55-68 55c-40 0-51-45-70-88-27-64-50-130-44-184" fill="#fffaf0" stroke="#0d3b2e" stroke-width="24" stroke-linejoin="round"/>
    <path d="M580 364c18-44 75-67 124-36" fill="none" stroke="#bf9134" stroke-width="18" stroke-linecap="round"/>
    <path d="M478 850c88 42 190 42 280 0" fill="none" stroke="#7ea08d" stroke-width="16" stroke-linecap="round"/>
  </g>
</svg>
